<?xml version="1.0" encoding="utf-8"?>
<!-- Generator: Adobe Illustrator 25.2.1, SVG Export Plug-In . SVG Version: 6.00 Build 0)  -->
<!DOCTYPE svg PUBLIC "-//W3C//DTD SVG 1.1//EN" "http://www.w3.org/Graphics/SVG/1.1/DTD/svg11.dtd" [
	<!ENTITY ns_extend "http://ns.adobe.com/Extensibility/1.0/">
	<!ENTITY ns_ai "http://ns.adobe.com/AdobeIllustrator/10.0/">
	<!ENTITY ns_graphs "http://ns.adobe.com/Graphs/1.0/">
	<!ENTITY ns_vars "http://ns.adobe.com/Variables/1.0/">
	<!ENTITY ns_imrep "http://ns.adobe.com/ImageReplacement/1.0/">
	<!ENTITY ns_sfw "http://ns.adobe.com/SaveForWeb/1.0/">
	<!ENTITY ns_custom "http://ns.adobe.com/GenericCustomNamespace/1.0/">
	<!ENTITY ns_adobe_xpath "http://ns.adobe.com/XPath/1.0/">
]>
<svg version="1.1" id="Capa_1" xmlns:x="&ns_extend;" xmlns:i="&ns_ai;" xmlns:graph="&ns_graphs;"
	 xmlns="http://www.w3.org/2000/svg" xmlns:xlink="http://www.w3.org/1999/xlink" x="0px" y="0px" viewBox="0 0 136.2 109.1"
	 style="enable-background:new 0 0 136.2 109.1;" xml:space="preserve">
<style type="text/css">
	.st0{fill:#FFFFFF;}
	.st1{clip-path:url(#SVGID_2_);fill:none;stroke:#FFFFFF;stroke-miterlimit:10;}
	.st2{clip-path:url(#SVGID_4_);fill:none;stroke:#FFFFFF;stroke-linecap:round;stroke-linejoin:round;stroke-miterlimit:10;}
</style>
<metadata>
	<sfw  xmlns="&ns_sfw;">
		<slices></slices>
		<sliceSourceBounds  bottomLeftOrigin="true" height="109.2" width="137" x="229" y="365.8"></sliceSourceBounds>
	</sfw>
</metadata>
<g>
	<path class="st0" d="M97.7,17.3c-1.6,0-3.2,0.1-4.8,0.3C87.4,7.5,76.7,1.1,65,1.1C49.1,1.1,35.9,12.8,33.5,28h-0.9
		C15,28,0.8,42.3,0.8,59.8c0,17.6,14.3,31.8,31.8,31.8h4.5c2.7,0,4.9-2.2,4.9-4.9c0-2.7-2.2-4.9-4.9-4.9h-4.5c-12.2,0-22-9.9-22-22
		c0-12.2,9.9-22,22-22h5.5c2.7,0,4.9-2.2,4.9-4.9c0-12.2,9.9-22,22-22c8.9,0,16.9,5.3,20.3,13.5c0.5,1.3,1.6,2.3,2.9,2.7l1.3,0.4
		c0.8,0.3,1.7,0.3,2.6,0.2c1.8-0.4,3.7-0.6,5.6-0.6c15.1,0,27.4,12.3,27.4,27.4c0,15.1-12.3,27.4-27.4,27.4c-2.6,0-4.8,2.1-4.9,4.8
		c0,0.1,0,0.1,0,0.2c0,0.1,0,0.2,0,0.3c0.2,2.6,2.3,4.6,4.9,4.6c0.3,0,0.6,0,0.8-0.1c20.1-0.4,36.3-16.9,36.3-37.2
		C134.9,33.9,118.2,17.3,97.7,17.3L97.7,17.3z"/>
	<g>
		<defs>
			<rect id="SVGID_1_" x="-0.7" y="-0.1" width="137" height="109.2"/>
		</defs>
		<clipPath id="SVGID_2_">
			<use xlink:href="#SVGID_1_"  style="overflow:visible;"/>
		</clipPath>
		<path class="st1" d="M97.7,17.3c-1.6,0-3.2,0.1-4.8,0.3C87.4,7.5,76.7,1.1,65,1.1C49.1,1.1,35.9,12.8,33.5,28h-0.9
			C15,28,0.8,42.3,0.8,59.8c0,17.6,14.3,31.8,31.8,31.8h4.5c2.7,0,4.9-2.2,4.9-4.9c0-2.7-2.2-4.9-4.9-4.9h-4.5c-12.2,0-22-9.9-22-22
			c0-12.2,9.9-22,22-22h5.5c2.7,0,4.9-2.2,4.9-4.9c0-12.2,9.9-22,22-22c8.9,0,16.9,5.3,20.3,13.5c0.5,1.3,1.6,2.3,2.9,2.7l1.3,0.4
			c0.8,0.3,1.7,0.3,2.6,0.2c1.8-0.4,3.7-0.6,5.6-0.6c15.1,0,27.4,12.3,27.4,27.4c0,15.1-12.3,27.4-27.4,27.4c-2.6,0-4.8,2.1-4.9,4.8
			c0,0.1,0,0.1,0,0.2c0,0.1,0,0.2,0,0.3c0.2,2.6,2.3,4.6,4.9,4.6c0.3,0,0.6,0,0.8-0.1c20.1-0.4,36.3-16.9,36.3-37.2
			C134.9,33.9,118.2,17.3,97.7,17.3L97.7,17.3z"/>
	</g>
	<path class="st0" d="M90.2,43.5l-45,29.6c0,0,0,0-0.1,0.1c-0.1,0.1-0.2,0.2-0.3,0.3c-0.1,0.1-0.2,0.1-0.3,0.2
		c-0.1,0.1-0.2,0.2-0.2,0.3c-0.1,0.1-0.2,0.2-0.2,0.3c-0.1,0.1-0.1,0.2-0.2,0.3c-0.1,0.1-0.1,0.2-0.2,0.3c0,0.1-0.1,0.2-0.1,0.3
		c0,0.1-0.1,0.2-0.1,0.4c0,0.1,0,0.2,0,0.3c0,0.1,0,0.3,0,0.4c0,0,0,0.1,0,0.1c0,0.1,0,0.1,0,0.2c0,0.2,0,0.3,0.1,0.5
		c0,0.1,0.1,0.2,0.1,0.3c0,0.1,0.1,0.3,0.2,0.4c0.1,0.1,0.1,0.2,0.2,0.3c0,0.1,0.1,0.1,0.1,0.2c0,0.1,0.1,0.1,0.1,0.2
		c0,0.1,0.1,0.1,0.1,0.2c0.1,0.2,0.3,0.3,0.5,0.5c0.2,0.1,0.3,0.3,0.5,0.4c0.1,0,0.1,0.1,0.2,0.1c0.1,0.1,0.3,0.1,0.4,0.2
		c0.1,0,0.2,0.1,0.2,0.1c0.1,0,0.2,0.1,0.4,0.1c0.1,0,0.2,0,0.3,0c0.1,0,0.3,0,0.4,0c0,0,0.1,0,0.1,0L75.1,79L49.5,95.8l0.6-2.5
		c0.4-2-0.8-4-2.9-4.5c-2-0.4-4,0.8-4.5,2.9c0,0-2.6,11.7-2.6,11.7c0,0.2-0.4,1.8,0.8,3.2c1.2,1.3,2.9,1.7,4.2,1.1 M45.3,107.6
		L90,78.2c1.5-0.5,2.6-2,2.5-3.7c-0.1-2.1-1.8-3.7-3.9-3.6l-28,1.1l25.6-16.8l-0.6,2.5c-0.3,1.4,0.2,2.9,1.3,3.7
		c0.4,0.4,1,0.6,1.6,0.8c2,0.4,4-0.8,4.5-2.9l2.6-11.6c0,0,0.6-1.6-0.8-3.2c-1.3-1.4-2.6-1.4-2.8-1.4c0,0-1-0.1-1.8,0.4"/>
	<g>
		<defs>
			<rect id="SVGID_3_" x="-0.7" y="-0.1" width="137" height="109.2"/>
		</defs>
		<clipPath id="SVGID_4_">
			<use xlink:href="#SVGID_3_"  style="overflow:visible;"/>
		</clipPath>
		<path class="st2" d="M90.2,43.5l-45,29.6c0,0,0,0-0.1,0.1c-0.1,0.1-0.2,0.2-0.3,0.3c-0.1,0.1-0.2,0.1-0.3,0.2
			c-0.1,0.1-0.2,0.2-0.2,0.3c-0.1,0.1-0.2,0.2-0.2,0.3c-0.1,0.1-0.1,0.2-0.2,0.3c-0.1,0.1-0.1,0.2-0.2,0.3c0,0.1-0.1,0.2-0.1,0.3
			c0,0.1-0.1,0.2-0.1,0.4c0,0.1,0,0.2,0,0.3c0,0.1,0,0.3,0,0.4c0,0,0,0.1,0,0.1c0,0.1,0,0.1,0,0.2c0,0.2,0,0.3,0.1,0.5
			c0,0.1,0.1,0.2,0.1,0.3c0,0.1,0.1,0.3,0.2,0.4c0.1,0.1,0.1,0.2,0.2,0.3c0,0.1,0.1,0.1,0.1,0.2c0,0.1,0.1,0.1,0.1,0.2
			c0,0.1,0.1,0.1,0.1,0.2c0.1,0.2,0.3,0.3,0.5,0.5c0.2,0.1,0.3,0.3,0.5,0.4c0.1,0,0.1,0.1,0.2,0.1c0.1,0.1,0.3,0.1,0.4,0.2
			c0.1,0,0.2,0.1,0.2,0.1c0.1,0,0.2,0.1,0.4,0.1c0.1,0,0.2,0,0.3,0c0.1,0,0.3,0,0.4,0c0,0,0.1,0,0.1,0L75.1,79L49.5,95.8l0.6-2.5
			c0.4-2-0.8-4-2.9-4.5c-2-0.4-4,0.8-4.5,2.9c0,0-2.6,11.7-2.6,11.7c0,0.2-0.4,1.8,0.8,3.2c1.2,1.3,2.9,1.7,4.2,1.1 M45.3,107.6
			L90,78.2c1.5-0.5,2.6-2,2.5-3.7c-0.1-2.1-1.8-3.7-3.9-3.6l-28,1.1l25.6-16.8l-0.6,2.5c-0.3,1.4,0.2,2.9,1.3,3.7
			c0.4,0.4,1,0.6,1.6,0.8c2,0.4,4-0.8,4.5-2.9l2.6-11.6c0,0,0.6-1.6-0.8-3.2c-1.3-1.4-2.6-1.4-2.8-1.4c0,0-1-0.1-1.8,0.4"/>
	</g>
</g>
</svg>
